<svg width="21" height="20" viewBox="0 0 21 20" fill="none" xmlns="http://www.w3.org/2000/svg">
    <path d="M14.103 15.4281C14.103 15.7408 13.8277 16.0543 13.4985 16.0326C13.2217 16.0153 12.945 16.0108 12.6682 15.9943C12.4102 15.9808 12.1522 15.9666 11.8927 15.9591C10.6687 15.9253 9.44174 15.9516 8.21625 15.9516C7.581 15.9516 6.94425 15.9531 6.3075 15.9621C5.62124 15.9726 4.94249 16.0333 4.25999 16.1181C4.10399 16.1368 3.91875 16.0378 3.81299 15.9328C3.69674 15.8151 3.62925 15.6531 3.62925 15.4858C3.62925 15.3193 3.69599 15.1581 3.81299 15.0403C3.94274 14.9121 4.08524 14.8761 4.25999 14.8551C4.85099 14.7861 5.43824 14.7486 6.033 14.7486C6.06525 14.7486 6.09825 14.7486 6.1305 14.7486C7.3935 14.7576 8.65725 14.7658 9.92025 14.7718C10.1692 14.7733 10.4197 14.7718 10.671 14.7703C11.0122 14.7688 11.3527 14.7658 11.6955 14.7703C12.297 14.7793 12.8962 14.8258 13.4977 14.8213C13.8277 14.8206 14.103 15.0988 14.103 15.4281ZM13.7092 12.0658C13.4205 12.0688 13.1325 12.0876 12.8437 12.0876C12.5287 12.0891 12.213 12.0876 11.8965 12.0876C11.283 12.0906 10.6695 12.0921 10.0545 12.0816C8.7375 12.0583 7.419 12.0306 6.10125 11.9781C5.3205 11.9473 4.53899 11.8948 3.75824 11.8618C3.74999 11.8611 3.741 11.8611 3.73275 11.8611C3.396 11.8611 3.11849 12.1716 3.11849 12.5001C3.11849 12.8571 3.41024 13.1263 3.75824 13.1383C4.48125 13.1631 5.2035 13.1766 5.9265 13.1953C6.57675 13.2111 7.22475 13.2403 7.8735 13.2576C9.159 13.2928 10.4407 13.3551 11.7247 13.3753C12.0555 13.3813 12.3862 13.3798 12.717 13.3798C12.8317 13.3798 12.9472 13.3813 13.062 13.3813C13.278 13.3828 13.4932 13.3843 13.7092 13.3768C14.0662 13.3656 14.3647 13.0873 14.3647 12.7213C14.3647 12.3658 14.0662 12.0613 13.7092 12.0658ZM3.225 9.78506C3.219 9.39581 3.24074 9.00731 3.24824 8.61806C3.25424 8.21906 3.2715 7.82156 3.28874 7.42181C3.32625 6.59306 3.32099 5.76506 3.33224 4.93631C3.33524 4.66931 3.4995 4.43531 3.73275 4.33481C3.8475 4.18181 4.02074 4.07456 4.22324 4.07606C4.70549 4.07906 5.18624 4.08506 5.66849 4.09181C6.95099 4.10756 8.23125 4.09631 9.51375 4.08731C10.1445 4.08131 10.7737 4.07381 11.4052 4.06706C11.592 4.06406 11.778 4.06031 11.9647 4.06031C12.0757 4.06031 12.1867 4.06181 12.2985 4.06556C12.4395 4.07006 12.5827 4.08131 12.7237 4.09331C12.9015 4.10906 13.0822 4.12556 13.2525 4.17656C13.5255 4.25981 13.7017 4.51106 13.6987 4.78781C13.7895 4.90181 13.851 5.04131 13.8607 5.19806C13.9027 5.91656 13.9102 6.63506 13.9117 7.35281C13.9117 8.04806 13.926 8.74331 13.9192 9.43781C13.9147 9.78656 13.632 10.0783 13.2795 10.0821C13.1737 10.2756 12.975 10.4136 12.7417 10.4136C12.3982 10.4136 12.0555 10.4076 11.7112 10.4076C10.461 10.4046 9.20925 10.4061 7.959 10.4061C6.6135 10.4061 5.26649 10.4218 3.92174 10.3986C3.89774 10.4016 3.87674 10.4128 3.85199 10.4128C3.50775 10.4151 3.23099 10.1278 3.225 9.78506ZM4.62524 5.31806C4.58849 6.58856 4.53449 7.85756 4.50299 9.12731C4.71599 9.13331 4.92824 9.13931 5.14124 9.14456C6.43199 9.17531 7.722 9.17531 9.01274 9.17531C9.657 9.17531 10.299 9.17231 10.9432 9.17231C11.505 9.17231 12.0675 9.16406 12.63 9.17531C12.6352 8.56781 12.6412 7.96106 12.639 7.35431C12.6352 6.68231 12.5992 6.01331 12.5542 5.34356C12.3562 5.33231 12.159 5.32256 11.9602 5.32181C10.7317 5.31131 9.50475 5.29556 8.2785 5.29706C8.0355 5.29856 7.79325 5.29706 7.55025 5.29706C7.14675 5.29556 6.74325 5.29406 6.34125 5.29856C5.76975 5.30456 5.19749 5.31206 4.62524 5.31806ZM20.9752 10.8321C20.9722 11.4808 20.9887 12.1303 20.9857 12.7798C20.9842 13.1001 20.9752 13.4226 20.955 13.7413C20.9332 14.0646 20.8927 14.3856 20.8635 14.7073C20.8342 15.0253 20.8215 15.3441 20.7952 15.6613C20.766 16.0213 20.7105 16.3828 20.6332 16.7368C20.5702 17.0256 20.508 17.3211 20.4045 17.5978C20.3332 17.7846 20.2605 17.9736 20.1667 18.1498C20.103 18.2676 20.0265 18.3801 19.9537 18.4933C19.8067 18.7191 19.5502 18.8368 19.2967 18.7963C19.191 18.9366 19.0282 19.0303 18.8385 19.0431C18.5445 19.0633 18.2497 19.0723 17.9542 19.0881C17.6512 19.1031 17.3467 19.1203 17.0437 19.1218C16.4407 19.1263 15.8385 19.1248 15.2355 19.1346C14.6392 19.1451 14.0437 19.1653 13.4475 19.1698C12.2145 19.1788 10.9807 19.1991 9.74775 19.1856C8.502 19.1721 7.25625 19.1436 6.012 19.1331C4.80599 19.1248 3.58275 19.0521 2.3835 19.2051C2.28975 19.2178 2.196 19.2306 2.10225 19.2433C2.08875 19.2456 2.07599 19.2478 2.06249 19.2501C1.9515 19.2793 1.84125 19.2793 1.73025 19.2501C1.698 19.2403 1.67474 19.2141 1.64474 19.2006C1.50299 19.2201 1.356 19.2036 1.2315 19.1301C1.077 19.0386 0.996745 18.9073 0.935995 18.7438C0.839995 18.4933 0.770245 18.2308 0.693745 17.9728C0.616495 17.7073 0.545245 17.4396 0.495745 17.1688C0.432745 16.8208 0.380245 16.4698 0.333745 16.1188C0.321745 16.0708 0.314995 16.0213 0.314245 15.9718C0.280495 15.7123 0.249745 15.4521 0.218995 15.1926C0.146245 14.5663 0.113995 13.9408 0.0907451 13.3116C0.0457451 12.0598 0.0224951 10.8051 0.0239951 9.55256C0.0254951 8.26331 -0.00825487 6.97331 0.00374513 5.68406C0.00974513 5.01956 0.0284951 4.35656 0.0442451 3.69206C0.0622451 3.00056 0.071245 2.30906 0.089995 1.61681C0.090745 1.59356 0.101995 1.57256 0.104245 1.55006C0.089245 1.49456 0.069745 1.44131 0.069745 1.38131C0.069745 1.03931 0.357745 0.726562 0.704995 0.726562C0.710995 0.726562 0.717745 0.726562 0.723745 0.726562C1.08825 0.738563 1.45349 0.751313 1.81799 0.764813C2.11124 0.774563 2.40525 0.773063 2.6985 0.788063C3.312 0.817313 3.92099 0.888563 4.53449 0.901313C5.15549 0.914813 5.77575 0.921562 6.39525 0.921562C7.6515 0.921562 8.90549 0.901312 10.1617 0.884812C11.4247 0.867562 12.6885 0.813563 13.9515 0.797063C14.5575 0.789563 15.1635 0.776812 15.7702 0.773812C16.3402 0.770812 16.9125 0.750563 17.4825 0.767813C17.8087 0.778313 18.0825 1.03331 18.0825 1.36856C18.0825 1.50956 18.0217 1.64381 17.9317 1.75181C17.9355 1.77731 17.9475 1.79981 17.949 1.82531C17.9932 2.48306 18 3.13856 18 3.79481C18.7717 3.79931 19.5442 3.81431 20.3167 3.81956C20.5912 3.82106 20.8162 4.01381 20.886 4.26881C20.955 4.37081 21.0045 4.48631 21 4.61606C20.9842 5.14781 20.937 5.67956 20.9242 6.21131C20.9122 6.72581 20.901 7.24031 20.9197 7.75406C20.9385 8.26406 20.9692 8.77256 20.9797 9.28256C20.9895 9.79856 20.9782 10.3146 20.9752 10.8321ZM17.0842 17.9743C17.2012 17.9691 17.3182 17.9616 17.4345 17.9533C17.2177 17.6983 17.022 17.4313 16.887 17.1238C16.8142 16.9596 16.7415 16.7886 16.7032 16.6093C16.6642 16.4271 16.641 16.2411 16.6245 16.0528C16.6222 16.0258 16.6245 15.9996 16.6237 15.9726C16.6035 15.8766 16.5967 15.7776 16.6177 15.6763C16.6237 15.4521 16.5952 15.2241 16.5825 15.0028C16.569 14.7928 16.5637 14.5828 16.5652 14.3736C16.5667 13.9101 16.5795 13.4466 16.5885 12.9823C16.6072 12.0598 16.6192 11.1381 16.6222 10.2156C16.6237 9.52181 16.6222 8.82881 16.6357 8.13656C16.6477 7.46606 16.6957 6.79781 16.707 6.12881C16.7197 5.41481 16.719 4.70081 16.707 3.98681C16.6957 3.30956 16.6492 2.63456 16.5982 1.95881C16.3305 1.95656 16.0627 1.94381 15.7957 1.94831C15.198 1.95806 14.601 1.97006 14.0032 1.97006C13.3635 1.97006 12.7237 1.99931 12.084 2.02856C11.4607 2.05781 10.8367 2.06381 10.2105 2.07056C9.57975 2.07806 8.95049 2.09531 8.319 2.11106C7.68375 2.12831 7.04849 2.12006 6.41325 2.12006C5.79224 2.12006 5.17199 2.12456 4.54949 2.12756C4.24649 2.12756 3.94049 2.12906 3.63749 2.10581C3.32999 2.08106 3.0255 2.04356 2.7165 2.03456C2.418 2.02631 2.11725 2.03906 1.81875 2.04206C1.67025 2.04281 1.52175 2.03906 1.37325 2.03831C1.3155 3.24581 1.22325 4.45181 1.20449 5.66156C1.18575 6.90581 1.24275 8.15006 1.25399 9.39431C1.266 10.6618 1.2675 11.9308 1.317 13.1976C1.34175 13.8186 1.368 14.4388 1.43775 15.0568C1.455 15.2068 1.47525 15.3553 1.49475 15.5053C1.50675 15.5826 1.51499 15.6613 1.5255 15.7401C1.53299 15.7971 1.54275 15.8526 1.548 15.9081C1.611 16.3626 1.67775 16.8216 1.79925 17.2656C1.86825 17.5176 1.9605 17.7636 2.0475 18.0103C2.772 17.9278 3.49799 17.9391 4.22699 17.9391C5.46825 17.9391 6.7095 17.9826 7.9515 18.0058C9.19425 18.0291 10.44 18.0321 11.6842 18.0291C11.9422 18.0291 12.2017 18.0291 12.4605 18.0291C12.8055 18.0291 13.1527 18.0306 13.4992 18.0261C14.1082 18.0201 14.7172 17.9923 15.3262 17.9856C15.546 17.9841 15.768 17.9856 15.9877 17.9856C16.3545 17.9886 16.7182 17.9916 17.0842 17.9743ZM19.6897 8.65331C19.6822 8.31506 19.6605 7.97831 19.662 7.64081C19.6635 7.32806 19.6665 7.01306 19.6695 6.69956C19.6717 6.14006 19.6837 5.58206 19.6927 5.02331C19.521 5.02331 19.3492 5.02406 19.1767 5.02706C18.7837 5.03456 18.39 5.04131 17.9955 5.04431C17.9932 5.50331 17.9902 5.96306 17.976 6.42206C17.9617 6.88856 17.9377 7.35281 17.9295 7.81781C17.9175 8.51306 17.925 9.20831 17.9265 9.90281C17.928 10.5748 17.928 11.2461 17.94 11.9166C17.9505 12.5736 17.9445 13.2276 17.9355 13.8853C17.9325 14.1943 17.9235 14.5048 17.9265 14.8146C17.9295 14.9856 17.9325 15.1543 17.9422 15.3246C17.9482 15.4018 17.9542 15.4776 17.961 15.5548C17.9745 15.7123 17.9655 15.8548 17.9347 16.0138C17.9242 16.0671 17.8927 16.1083 17.868 16.1548C17.892 16.2628 17.9152 16.3701 17.9542 16.4751C18.0232 16.6176 18.1035 16.7496 18.1965 16.8778C18.3195 17.0301 18.4485 17.1771 18.5962 17.3053C18.729 17.3953 18.8662 17.4711 19.0147 17.5356C19.0162 17.5363 19.0177 17.5378 19.0192 17.5386C19.044 17.4906 19.0747 17.4456 19.0972 17.3961C19.254 16.9791 19.341 16.5366 19.4092 16.0978C19.4422 15.8271 19.4632 15.5563 19.4805 15.2833C19.4992 14.9833 19.5345 14.6878 19.5667 14.3886C19.6335 13.7676 19.6612 13.1488 19.6567 12.5233C19.6462 11.2341 19.7175 9.94331 19.6897 8.65331Z"
          fill="white"/>
</svg>
