<svg width="35" height="33" viewBox="0 0 35 33" fill="none" xmlns="http://www.w3.org/2000/svg">
    <path d="M24.4513 3.13023C26.318 3.13559 28.1068 3.85156 29.4268 5.12177C30.7468 6.39197 31.4908 8.1132 31.4964 9.90953V23.4667C31.4908 25.263 30.7468 26.9842 29.4268 28.2544C28.1068 29.5246 26.318 30.2406 24.4513 30.246H10.3627C8.4959 30.2406 6.70719 29.5246 5.38719 28.2544C4.06719 26.9842 3.32315 25.263 3.31758 23.4667V9.90953C3.32315 8.1132 4.06719 6.39197 5.38719 5.12177C6.70719 3.85156 8.4959 3.13559 10.3627 3.13023H24.4513ZM24.4513 0.418945H10.3627C4.93808 0.418945 0.5 4.6896 0.5 9.90953V23.4667C0.5 28.6866 4.93808 32.9573 10.3627 32.9573H24.4513C29.8759 32.9573 34.3139 28.6866 34.3139 23.4667V9.90953C34.3139 4.6896 29.8759 0.418945 24.4513 0.418945Z"
          fill="white"/>
    <path d="M26.5643 9.91006C26.1463 9.91006 25.7377 9.79079 25.3902 9.56733C25.0426 9.34387 24.7718 9.02626 24.6118 8.65466C24.4518 8.28306 24.41 7.87416 24.4915 7.47967C24.5731 7.08519 24.7744 6.72283 25.0699 6.43841C25.3655 6.154 25.7421 5.96032 26.152 5.88185C26.562 5.80338 26.9869 5.84365 27.3731 5.99758C27.7592 6.1515 28.0893 6.41216 28.3215 6.74659C28.5537 7.08102 28.6777 7.4742 28.6777 7.87642C28.6783 8.14364 28.624 8.40835 28.518 8.65534C28.412 8.90233 28.2564 9.12675 28.06 9.3157C27.8637 9.50466 27.6304 9.65443 27.3738 9.75643C27.1171 9.85843 26.842 9.91064 26.5643 9.91006ZM17.4066 11.2653C18.5213 11.2653 19.6109 11.5834 20.5378 12.1793C21.4646 12.7753 22.1869 13.6223 22.6135 14.6132C23.0401 15.6042 23.1517 16.6947 22.9342 17.7467C22.7168 18.7987 22.18 19.765 21.3918 20.5235C20.6036 21.2819 19.5994 21.7985 18.5061 22.0077C17.4129 22.217 16.2797 22.1096 15.2498 21.6991C14.22 21.2886 13.3398 20.5935 12.7205 19.7017C12.1012 18.8098 11.7707 17.7613 11.7707 16.6886C11.7723 15.2508 12.3666 13.8722 13.4232 12.8555C14.4798 11.8388 15.9124 11.2669 17.4066 11.2653ZM17.4066 8.55406C15.7347 8.55406 14.1003 9.03114 12.7101 9.92498C11.3199 10.8188 10.2364 12.0893 9.59661 13.5757C8.95679 15.0621 8.78938 16.6977 9.11556 18.2756C9.44174 19.8536 10.2469 21.303 11.4291 22.4407C12.6113 23.5783 14.1176 24.353 15.7574 24.6669C17.3972 24.9808 19.0969 24.8197 20.6416 24.204C22.1863 23.5883 23.5065 22.5457 24.4354 21.208C25.3643 19.8702 25.8601 18.2975 25.8601 16.6886C25.8601 14.5312 24.9695 12.4622 23.3841 10.9366C21.7988 9.41109 19.6486 8.55406 17.4066 8.55406Z"
          fill="white"/>
</svg>
