<svg width="34" height="34" viewBox="0 0 34 34" fill="none" xmlns="http://www.w3.org/2000/svg">
    <path d="M31.3314 0.166992H3.75544C2.24864 0.166992 0.932129 1.25118 0.932129 2.74027V30.3774C0.932129 31.8746 2.24864 33.2089 3.75544 33.2089H31.3233C32.8382 33.2089 33.974 31.8658 33.974 30.3774V2.74027C33.9828 1.25118 32.8382 0.166992 31.3314 0.166992ZM11.1744 27.709H6.44083V12.9914H11.1744V27.709ZM8.97133 10.7537H8.9374C7.42249 10.7537 6.44156 9.62596 6.44156 8.21431C6.44156 6.77684 7.44831 5.67569 8.99715 5.67569C10.546 5.67569 11.4937 6.76873 11.5276 8.21431C11.5269 9.62596 10.546 10.7537 8.97133 10.7537ZM28.4741 27.709H23.7406V19.6617C23.7406 17.7338 23.0517 16.4165 21.3392 16.4165C20.0308 16.4165 19.2563 17.3016 18.9119 18.1637C18.7828 18.4735 18.7482 18.8954 18.7482 19.3261V27.709H14.0146V12.9914H18.7482V15.0395C19.437 14.0586 20.5131 12.6469 23.0171 12.6469C26.1243 12.6469 28.4749 14.6951 28.4749 19.1107L28.4741 27.709Z"
          fill="white"/>
</svg>
