<svg width="24" height="24" viewBox="0 0 24 24" fill="none" xmlns="http://www.w3.org/2000/svg">
    <path d="M21.75 1.5H2.25C1.425 1.5 0.75 2.175 0.75 3V17.25C0.75 18.075 1.425 18.75 2.25 18.75H21.75C22.575 18.75 23.25 18.075 23.25 17.25V3C23.25 2.175 22.575 1.5 21.75 1.5ZM21.75 15C21.75 15.4125 21.4125 15.75 21 15.75H3C2.5875 15.75 2.25 15.4125 2.25 15V3.75C2.25 3.3375 2.5875 3 3 3H21C21.4125 3 21.75 3.3375 21.75 3.75V15ZM16.5 21.75C16.5 22.164 16.1648 22.5 15.75 22.5H8.25C7.83525 22.5 7.5 22.164 7.5 21.75C7.5 21.336 7.83525 21 8.25 21H9V19.5H15V21H15.75C16.1648 21 16.5 21.336 16.5 21.75ZM16.5 10.5C16.5 10.914 16.1648 11.25 15.75 11.25H8.25C7.83525 11.25 7.5 10.914 7.5 10.5C7.5 10.086 7.83525 9.75 8.25 9.75H15.75C16.1648 9.75 16.5 10.086 16.5 10.5ZM16.5 7.5C16.5 7.914 16.1648 8.25 15.75 8.25H8.25C7.83525 8.25 7.5 7.914 7.5 7.5C7.5 7.086 7.83525 6.75 8.25 6.75H15.75C16.1648 6.75 16.5 7.086 16.5 7.5Z"
          fill="white"/>
</svg>
