<svg width="33" height="27" viewBox="0 0 33 27" fill="none" xmlns="http://www.w3.org/2000/svg">
    <path d="M32.9322 3.74013C31.7086 4.27139 30.414 4.6214 29.0893 4.77909C30.4815 3.96447 31.5284 2.67031 32.0338 1.13933C30.7176 1.90842 29.28 2.44806 27.7826 2.73512C27.152 2.07475 26.3937 1.54941 25.5536 1.19103C24.7136 0.832652 23.8094 0.648715 22.896 0.650402C19.1979 0.650402 16.2051 3.59752 16.2051 7.2305C16.2025 7.73583 16.2605 8.23966 16.3777 8.73122C13.7259 8.60699 11.1293 7.931 8.75391 6.7465C6.37853 5.562 4.27673 3.89506 2.58297 1.85234C1.98876 2.85336 1.67451 3.99548 1.67306 5.15936C1.67306 7.441 2.8643 9.45781 4.66306 10.6394C3.59735 10.6141 2.55347 10.3322 1.62005 9.81772V9.8992C1.62005 13.0908 3.93051 15.7459 6.98846 16.3503C6.41342 16.5035 5.82085 16.5811 5.22572 16.5812C4.80344 16.5819 4.38211 16.5409 3.96788 16.4589C4.81799 19.0733 7.29222 20.9747 10.2231 21.029C7.84155 22.8631 4.91763 23.8544 1.9109 23.8471C1.37719 23.8463 0.843987 23.8146 0.313965 23.752C3.37272 25.7038 6.92829 26.7362 10.5574 26.7263C22.8817 26.7263 29.6146 16.6966 29.6146 7.99783C29.6146 7.71263 29.6071 7.42742 29.5936 7.14901C30.9004 6.22009 32.031 5.06573 32.9322 3.74013Z"
          fill="white"/>
</svg>
