<svg width="240" height="105" viewBox="0 0 240 105" fill="none" xmlns="http://www.w3.org/2000/svg">
    <path d="M171.689 55.0612H144.645C144.276 55.0612 143.976 54.7589 143.976 54.3847V6.97647C143.976 6.60322 144.276 6.29996 144.645 6.29996H171.689C172.478 6.29996 173.232 5.98456 173.788 5.42375C174.393 4.81256 174.664 4.06139 174.664 3.32516C174.664 1.78271 173.478 0.303711 171.689 0.303711H143.975H143.678H140.802C139.277 0.303711 138.04 1.55316 138.04 3.09375V58.2665C138.04 59.8071 139.277 61.0565 140.802 61.0565H143.678H143.975H171.689C172.478 61.0565 173.232 60.7411 173.788 60.1803C174.393 59.5691 174.664 58.8179 174.664 58.0817C174.665 56.5402 173.479 55.0612 171.689 55.0612Z"
          fill="url(#paint0_linear_1699_2531)"/>
    <path d="M155.516 17.5294H168.851C169.64 17.5294 170.394 17.2141 170.95 16.6532C171.555 16.042 171.826 15.2909 171.826 14.5547C171.826 13.0122 170.64 11.5332 168.851 11.5332H151.674C150.149 11.5332 148.913 12.7836 148.913 14.3242V30.4625V30.8992V47.0376C148.913 48.5791 150.148 49.8285 151.674 49.8285H168.851C170.64 49.8285 171.826 48.3495 171.826 46.8071C171.826 46.0709 171.555 45.3197 170.95 44.7085C170.393 44.1477 169.639 43.8323 168.851 43.8323H155.516C155.146 43.8323 154.848 43.529 154.848 43.1548V33.6799H163.374C164.161 33.6799 164.916 33.3645 165.472 32.8019L165.474 32.8C167.344 30.9114 166.02 27.6818 163.376 27.6818H154.848V18.2069C154.848 17.8327 155.147 17.5294 155.516 17.5294Z"
          fill="url(#paint1_linear_1699_2531)"/>
    <path d="M125.633 3.16511V58.2641C125.633 59.9195 124.305 61.2622 122.666 61.2622H122.665C121.026 61.2622 119.698 59.9204 119.698 58.2641V3.16511C119.698 1.50976 121.026 0.166992 122.665 0.166992H122.666C124.305 0.166992 125.633 1.50882 125.633 3.16511Z"
          fill="url(#paint2_linear_1699_2531)"/>
    <path d="M112.667 0.166992C115.074 0.166992 116.48 2.9113 115.089 4.89699C109.583 12.7557 99.1498 27.6502 99.1498 27.6502L97.9352 29.3821C96.7523 31.0692 94.2737 31.0692 93.0917 29.3812L91.8791 27.6502L75.9411 4.89699C74.5506 2.9113 75.9559 0.166992 78.3634 0.166992H78.3653C79.3279 0.166992 80.2312 0.639153 80.7876 1.43324L95.4112 22.31C95.4626 22.3837 95.5703 22.3837 95.6217 22.31L110.245 1.43324C110.801 0.639153 111.704 0.166992 112.667 0.166992Z"
          fill="url(#paint3_linear_1699_2531)"/>
    <path d="M71.2704 3.16511V58.2641C71.2704 59.9195 69.9422 61.2622 68.3036 61.2622H68.3026C66.6641 61.2622 65.3358 59.9204 65.3358 58.2641V3.16511C65.3358 1.50976 66.6641 0.166992 68.3026 0.166992H68.3036C69.9422 0.166992 71.2704 1.50882 71.2704 3.16511Z"
          fill="url(#paint4_linear_1699_2531)"/>
    <path d="M114.549 24.2466V58.2645C114.549 59.9199 113.221 61.2626 111.582 61.2626H111.581C109.943 61.2626 108.615 59.9208 108.615 58.2645V34.0845C108.615 33.9576 108.453 33.9053 108.38 34.0089L99.1509 47.1846L97.9363 48.9165C96.7533 50.6036 94.2747 50.6036 93.0928 48.9156L91.8801 47.1846L82.5883 33.9212C82.5152 33.8176 82.3541 33.869 82.3541 33.9968V58.2645C82.3541 59.9199 81.0259 61.2626 79.3873 61.2626H79.3863C77.7477 61.2626 76.4195 59.9208 76.4195 58.2645V24.158C76.4195 21.2345 80.1374 20.0401 81.8086 22.4261L82.3551 23.2062L95.4113 41.8444C95.4626 41.9181 95.5704 41.9181 95.6218 41.8444L108.614 23.2948L109.16 22.5147C110.831 20.1287 114.549 21.3241 114.549 24.2466Z"
          fill="url(#paint5_linear_1699_2531)"/>
    <path d="M149.563 102.238H140.249C140.121 102.238 140.019 102.127 140.019 101.992V84.6973C140.019 84.5605 140.123 84.4511 140.249 84.4511H149.563C149.835 84.4511 150.094 84.3362 150.287 84.132C150.495 83.9095 150.588 83.6342 150.588 83.3661C150.588 82.8026 150.18 82.2646 149.563 82.2646H140.017H139.915H138.925C138.4 82.2646 137.973 82.7205 137.973 83.2822V103.409C137.973 103.971 138.4 104.426 138.925 104.426H139.915H140.017H149.563C149.835 104.426 150.094 104.312 150.287 104.107C150.495 103.885 150.588 103.609 150.588 103.341C150.588 102.776 150.18 102.238 149.563 102.238Z"
          fill="white"/>
    <path d="M143.993 88.5468H148.586C148.858 88.5468 149.117 88.4319 149.31 88.2277C149.518 88.0052 149.611 87.7298 149.611 87.4618C149.611 86.8983 149.203 86.3604 148.586 86.3604H142.671C142.145 86.3604 141.72 86.8162 141.72 87.3779V93.2644V93.423V99.3095C141.72 99.8711 142.145 100.327 142.671 100.327H148.586C149.203 100.327 149.611 99.7872 149.611 99.2256C149.611 98.9575 149.518 98.6822 149.31 98.4597C149.119 98.2554 148.858 98.1406 148.586 98.1406H143.993C143.865 98.1406 143.763 98.0293 143.763 97.8944V94.4387H146.699C146.971 94.4387 147.229 94.3238 147.421 94.1178C148.065 93.4285 147.609 92.2505 146.699 92.2505H143.761V88.7948C143.763 88.6562 143.865 88.5468 143.993 88.5468Z"
          fill="white"/>
    <path d="M20.8729 83.3495V103.338C20.8729 103.938 20.417 104.424 19.8572 104.424C19.2956 104.424 18.8415 103.938 18.8415 103.338V83.3495C18.8415 82.7496 19.2974 82.2627 19.8572 82.2627C20.417 82.2627 20.8729 82.7496 20.8729 83.3495Z"
          fill="white"/>
    <path d="M16.4325 82.2627C17.2568 82.2627 17.7382 83.2584 17.2622 83.9787C15.3767 86.8289 11.8025 92.2321 11.8025 92.2321L11.3867 92.8612C10.9819 93.474 10.1321 93.474 9.72728 92.8612L9.31151 92.2339L3.85177 83.9805C3.37582 83.2602 3.85723 82.2645 4.68148 82.2645C5.01155 82.2645 5.31973 82.4359 5.51121 82.7241L10.5205 90.2973C10.5388 90.3247 10.5752 90.3247 10.5935 90.2973L15.6028 82.7241C15.7924 82.4341 16.1024 82.2627 16.4325 82.2627Z"
          fill="white"/>
    <path d="M2.25252 83.3495V103.338C2.25252 103.938 1.79663 104.424 1.23679 104.424C0.675138 104.424 0.221069 103.938 0.221069 103.338V83.3495C0.221069 82.7496 0.676961 82.2627 1.23679 82.2627C1.79845 82.2627 2.25252 82.7496 2.25252 83.3495Z"
          fill="white"/>
    <path d="M17.0764 90.9973V103.337C17.0764 103.937 16.6205 104.424 16.0607 104.424C15.499 104.424 15.045 103.937 15.045 103.337V94.566C15.045 94.5204 14.9903 94.5003 14.9647 94.5386L11.8045 99.3182L11.3887 99.9473C10.9839 100.56 10.1341 100.56 9.72928 99.9473L9.31351 99.32L6.1314 94.5076C6.10587 94.4693 6.05116 94.4894 6.05116 94.535V103.337C6.05116 103.937 5.59527 104.424 5.03543 104.424C4.47378 104.424 4.01971 103.937 4.01971 103.337V90.9644C4.01971 89.9049 5.29256 89.4709 5.86516 90.3353L6.05298 90.618L10.5244 97.3797C10.5426 97.4071 10.5791 97.4071 10.5973 97.3797L15.0468 90.6508L15.2346 90.3681C15.8036 89.5038 17.0764 89.9359 17.0764 90.9973Z"
          fill="white"/>
    <path d="M34.6918 104.799C34.3399 104.799 34.0773 104.662 33.8621 104.367C33.6378 104.061 33.5248 103.55 33.5248 102.85V96.5038L29.6789 88.9725C29.3598 88.3306 29.13 87.82 29.0005 87.4644C28.8856 87.1507 28.8273 86.8863 28.8273 86.6766C28.8273 86.3502 28.9257 86.073 29.1282 85.8341C29.3306 85.5952 29.5768 85.4785 29.8776 85.4785C30.1876 85.4785 30.4083 85.5752 30.5524 85.7739C30.7584 86.0584 31.0794 86.6511 31.5097 87.5391L34.7538 94.1951L38.0326 87.5428L38.4794 86.6164C38.5906 86.3866 38.7128 86.1715 38.8423 85.9745C38.9535 85.8068 39.0757 85.6791 39.2033 85.5934C39.32 85.5168 39.4714 85.4785 39.6556 85.4785C39.9437 85.4785 40.1662 85.5879 40.3576 85.8213C40.5491 86.0584 40.6421 86.321 40.6421 86.6237C40.6421 86.9045 40.5874 87.1817 40.4762 87.4699C40.3504 87.7981 40.1261 88.2649 39.8124 88.8594L35.868 96.5019V102.85C35.868 103.539 35.7513 104.046 35.5216 104.358C35.3027 104.659 35.0383 104.799 34.6918 104.799Z"
          fill="white"/>
    <path d="M62.39 104.799C62.1237 104.799 61.9104 104.726 61.739 104.576C61.5402 104.403 61.3651 104.179 61.2192 103.909C61.0515 103.595 60.8181 103.126 60.5263 102.514L59.2662 99.8658C58.8067 98.8775 58.3836 98.1061 58.0134 97.5773C57.6177 97.0138 57.2019 96.6181 56.7789 96.4029C56.3631 96.1914 55.8434 96.0838 55.2343 96.0838H53.7335V102.851C53.7335 103.559 53.6205 104.071 53.398 104.372C53.1828 104.664 52.9184 104.799 52.5664 104.799C52.1853 104.799 51.9154 104.66 51.7148 104.363C51.4978 104.04 51.3884 103.531 51.3884 102.851V87.7738C51.3884 87.0462 51.5051 86.5301 51.7349 86.2384C51.9592 85.9557 52.3549 85.8135 52.9147 85.8135H58.0262C58.7082 85.8135 59.3009 85.8499 59.7859 85.9229C60.2418 85.9922 60.6558 86.1326 61.015 86.3405C61.4618 86.5776 61.852 86.9131 62.1876 87.3453C62.5231 87.7774 62.7839 88.288 62.9571 88.8625C63.134 89.446 63.2252 90.0733 63.2252 90.728C63.2252 92.0646 62.9297 93.1369 62.3462 93.9174C61.7535 94.7106 60.8235 95.2869 59.5872 95.6279L58.5933 95.9014L59.4796 96.4977C59.992 96.8424 60.4916 97.3621 60.9676 98.0441C61.4581 98.7498 61.9031 99.5139 62.2897 100.313C62.6763 101.113 62.9826 101.844 63.196 102.484C63.4713 103.307 63.5005 103.595 63.5005 103.681C63.5005 103.852 63.4549 104.024 63.3619 104.204C63.2671 104.388 63.1413 104.529 62.9753 104.638C62.813 104.746 62.6197 104.799 62.39 104.799ZM53.7372 94.18H56.9521C57.7399 94.18 58.4146 94.0906 58.9617 93.9156C59.5562 93.7259 60.023 93.3886 60.3476 92.9144C60.6777 92.433 60.8436 91.7838 60.8436 90.9814C60.8436 90.3505 60.7123 89.7834 60.4552 89.2946C60.1944 88.8023 59.8297 88.4285 59.3701 88.1841C58.9471 87.9598 58.1848 87.8486 57.0378 87.8486H53.739V94.18H53.7372Z"
          fill="white"/>
    <path d="M81.2948 104.798C80.1424 104.798 79.0993 104.561 78.1948 104.096C77.2958 103.633 76.5372 102.973 75.9372 102.132C75.3336 101.286 74.8686 100.249 74.5586 99.0504C74.2431 97.8359 74.0845 96.5011 74.0845 95.086C74.0845 93.6363 74.2504 92.2905 74.5787 91.0869C74.9014 89.898 75.3756 88.8731 75.9864 88.0434C76.5919 87.2192 77.3414 86.5809 78.213 86.1433C79.092 85.702 80.1077 85.4795 81.231 85.4795C82.7573 85.4795 84.0812 85.8734 85.1681 86.6484C86.2458 87.4179 87.0755 88.5321 87.6317 89.9563C88.197 91.4061 88.4833 93.1421 88.4833 95.1115C88.4833 96.5722 88.3265 97.9144 88.0147 99.1033C87.7065 100.276 87.2415 101.304 86.6306 102.16C86.0252 103.008 85.2702 103.666 84.3858 104.116C83.494 104.569 82.4546 104.798 81.2948 104.798ZM81.231 87.6878C80.5472 87.6878 79.9035 87.8538 79.3199 88.1802C78.7346 88.5103 78.224 88.9917 77.8027 89.6172C77.3869 90.2317 77.0569 91.0213 76.8216 91.9623C76.59 92.8886 76.4715 93.939 76.4715 95.0842C76.4715 96.2385 76.5882 97.298 76.8216 98.2371C77.0587 99.1927 77.3997 100.002 77.8374 100.641C78.2787 101.284 78.7947 101.777 79.3728 102.101C79.9509 102.424 80.5909 102.588 81.2748 102.588C82.1519 102.588 82.9707 102.307 83.7056 101.753C84.4441 101.197 85.035 100.336 85.4653 99.1927C85.8847 98.0767 86.0981 96.6944 86.0981 95.0842C86.0981 93.5943 85.903 92.2795 85.5182 91.1745C85.1225 90.0402 84.5444 89.1649 83.8004 88.5759C83.0528 87.9869 82.1884 87.6878 81.231 87.6878Z"
          fill="white"/>
    <path d="M110.709 104.799C110.479 104.799 110.269 104.757 110.089 104.677C109.914 104.597 109.744 104.465 109.587 104.289C109.412 104.092 109.246 103.855 109.093 103.585C108.925 103.289 108.758 102.987 108.59 102.677L101.959 89.8368V102.997C101.959 103.628 101.852 104.097 101.642 104.391C101.441 104.67 101.203 104.799 100.889 104.799C100.562 104.799 100.322 104.67 100.128 104.391C99.9206 104.092 99.8167 103.623 99.8167 102.997V87.8802C99.8167 87.2966 99.8659 86.8425 99.9607 86.5325C100.063 86.2298 100.234 85.9782 100.48 85.7758C100.725 85.5752 100.98 85.4785 101.259 85.4785C101.478 85.4785 101.664 85.5205 101.81 85.6043C101.967 85.6937 102.1 85.8122 102.218 85.9672C102.351 86.1405 102.494 86.3721 102.636 86.6529C102.795 86.9647 102.959 87.2875 103.126 87.6267L109.912 100.594V87.2784C109.912 86.6347 110.012 86.1605 110.211 85.8706C110.393 85.6025 110.625 85.4785 110.942 85.4785C111.274 85.4785 111.517 85.6043 111.701 85.8724C111.901 86.1642 112.002 86.6365 112.002 87.2784V102.691C112.002 104.56 111.311 104.799 110.709 104.799Z"
          fill="white"/>
    <path d="M164.86 104.798C164.513 104.798 164.221 104.716 163.992 104.552C163.751 104.381 163.563 104.162 163.415 103.879C163.251 103.566 163.103 103.201 162.981 102.798C162.848 102.366 162.717 101.908 162.584 101.423L158.887 88.7163C158.825 88.4884 158.758 88.2568 158.69 88.0307C158.63 87.8282 158.577 87.6058 158.535 87.3705C158.495 87.1462 158.475 86.9566 158.475 86.8125C158.475 86.477 158.583 86.1743 158.805 85.888C159.017 85.6126 159.278 85.4795 159.6 85.4795C160.124 85.4795 160.308 85.7093 160.401 85.8825C160.603 86.26 160.817 86.8873 161.039 87.7517L164.936 102.324L168.84 87.6641C169.021 86.9839 169.156 86.508 169.243 86.2472C169.313 86.0448 169.426 85.8624 169.59 85.6928C169.728 85.5506 169.925 85.4813 170.195 85.4813C170.389 85.4813 170.564 85.5415 170.73 85.6637C170.901 85.7913 171.032 85.9554 171.131 86.167C171.229 86.3785 171.277 86.5827 171.277 86.7888C171.277 86.9493 171.258 87.1298 171.222 87.3231C171.184 87.5328 171.134 87.7371 171.076 87.9395C171.012 88.1601 170.948 88.3881 170.883 88.6215L167.128 101.417C166.993 101.913 166.86 102.373 166.727 102.811C166.603 103.217 166.459 103.578 166.298 103.883C166.154 104.156 165.965 104.375 165.724 104.552C165.496 104.714 165.204 104.798 164.86 104.798Z"
          fill="white"/>
    <path d="M192.483 104.799C192.304 104.799 192.153 104.761 192.036 104.688C191.91 104.608 191.81 104.504 191.724 104.369C191.655 104.26 191.542 104.035 191.387 103.589C191.25 103.195 191.133 102.848 191.035 102.549L190.203 99.7864H183.33L182.497 102.617C182.154 103.78 181.932 104.276 181.808 104.486C181.762 104.564 181.62 104.801 181.129 104.801C180.843 104.801 180.593 104.668 180.367 104.395C180.137 104.119 180.026 103.82 180.026 103.483C180.026 103.26 180.055 103.027 180.115 102.788C180.183 102.513 180.298 102.124 180.454 101.632L184.424 88.9034L184.818 87.6324C184.981 87.1072 185.139 86.7079 185.303 86.3979C185.451 86.1207 185.641 85.9018 185.881 85.7286C186.109 85.5663 186.405 85.4824 186.758 85.4824C187.12 85.4824 187.419 85.5645 187.648 85.7286C187.891 85.9018 188.081 86.1188 188.228 86.3887C188.392 86.6896 188.533 87.016 188.646 87.3643C188.768 87.74 188.923 88.2415 189.113 88.8706L193.168 101.524C193.54 102.653 193.619 103.196 193.619 103.455C193.619 103.789 193.507 104.092 193.276 104.382C193.053 104.663 192.794 104.799 192.483 104.799ZM183.885 97.7495H189.632L186.731 87.7199L183.885 97.7495Z"
          fill="white"/>
    <path d="M215.461 104.799C215.232 104.799 215.022 104.757 214.841 104.677C214.666 104.597 214.497 104.465 214.34 104.289C214.165 104.092 213.999 103.855 213.846 103.585C213.678 103.289 213.51 102.987 213.342 102.677L206.712 89.8368V102.997C206.712 103.628 206.604 104.097 206.395 104.391C206.194 104.67 205.955 104.799 205.642 104.799C205.315 104.799 205.074 104.67 204.881 104.391C204.673 104.092 204.569 103.623 204.569 102.997V87.8802C204.569 87.2966 204.619 86.8425 204.713 86.5325C204.816 86.2298 204.987 85.9782 205.233 85.7758C205.477 85.5752 205.733 85.4785 206.012 85.4785C206.231 85.4785 206.417 85.5205 206.562 85.6043C206.719 85.6937 206.852 85.8122 206.971 85.9672C207.104 86.1405 207.246 86.3721 207.389 86.6529C207.547 86.9647 207.711 87.2875 207.879 87.6267L214.665 100.594V87.2784C214.665 86.6347 214.765 86.1605 214.964 85.8706C215.146 85.6025 215.378 85.4785 215.695 85.4785C216.027 85.4785 216.269 85.6043 216.453 85.8724C216.654 86.1642 216.754 86.6365 216.754 87.2784V102.691C216.756 104.56 216.065 104.799 215.461 104.799Z"
          fill="white"/>
    <path d="M234.027 104.799C232.579 104.799 231.376 104.454 230.45 103.774C229.804 103.293 229.268 102.638 228.863 101.829C228.462 101.03 228.258 100.249 228.258 99.509C228.258 99.1461 228.352 98.8452 228.549 98.5899C228.739 98.3437 228.967 98.2289 229.266 98.2289C229.494 98.2289 229.673 98.3127 229.828 98.4951C230.014 98.7103 230.18 99.0531 230.32 99.5108C230.528 100.167 230.756 100.723 231 101.17C231.265 101.652 231.638 102.053 232.111 102.363C232.585 102.673 233.201 102.83 233.943 102.83C234.963 102.83 235.811 102.518 236.462 101.905C237.14 101.265 237.485 100.45 237.485 99.4835C237.485 98.7139 237.292 98.0739 236.909 97.5797C236.553 97.1201 236.09 96.7645 235.534 96.5257C235.025 96.3068 234.339 96.0734 233.497 95.8291C232.417 95.5099 231.502 95.1324 230.78 94.7076C230.094 94.3046 229.543 93.7502 229.142 93.0591C228.75 92.3807 228.551 91.5145 228.551 90.486C228.551 89.5068 228.765 88.6278 229.184 87.8729C229.603 87.1161 230.225 86.5252 231.029 86.1149C231.857 85.6919 232.851 85.4785 233.982 85.4785C234.883 85.4785 235.669 85.6189 236.316 85.8979C236.958 86.1751 237.496 86.5416 237.913 86.9921C238.329 87.4407 238.637 87.9148 238.825 88.398C239.011 88.8776 239.106 89.3463 239.106 89.7912C239.106 90.1541 239.006 90.4732 238.8 90.7668C238.612 91.0367 238.395 91.1626 238.118 91.1626C237.871 91.1626 237.691 91.0969 237.583 90.9656C237.476 90.8343 237.293 90.5553 237.045 89.9681C236.748 89.1876 236.372 88.553 235.937 88.0953C235.463 87.5975 234.751 87.355 233.767 87.355C232.869 87.355 232.127 87.6157 231.56 88.1282C230.96 88.6698 230.657 89.3408 230.657 90.1268C230.657 90.6155 230.767 91.0495 230.984 91.4142C231.186 91.7552 231.463 92.047 231.808 92.2859C232.129 92.5083 232.459 92.6834 232.787 92.8074C233.094 92.9259 233.593 93.0937 234.308 93.3217C235.173 93.577 235.957 93.8596 236.65 94.1641C237.319 94.4577 237.893 94.8188 238.356 95.2346C238.801 95.6321 239.153 96.1445 239.401 96.7554C239.653 97.37 239.779 98.1432 239.779 99.0568C239.779 100.149 239.555 101.141 239.111 102.007C238.67 102.868 238.014 103.554 237.157 104.046C236.294 104.546 235.238 104.799 234.027 104.799Z"
          fill="white"/>
    <defs>
        <linearGradient id="paint0_linear_1699_2531" x1="138.353" y1="7.05402" x2="177.022" y2="7.99855"
                        gradientUnits="userSpaceOnUse">
            <stop stop-color="#8D611D"/>
            <stop offset="1" stop-color="#B79766"/>
        </linearGradient>
        <linearGradient id="paint1_linear_1699_2531" x1="149.108" y1="15.7882" x2="173.301" y2="16.3748"
                        gradientUnits="userSpaceOnUse">
            <stop stop-color="#8D611D"/>
            <stop offset="1" stop-color="#B79766"/>
        </linearGradient>
        <linearGradient id="paint2_linear_1699_2531" x1="119.749" y1="6.95535" x2="126.019" y2="6.98003"
                        gradientUnits="userSpaceOnUse">
            <stop stop-color="#8D611D"/>
            <stop offset="1" stop-color="#B79766"/>
        </linearGradient>
        <linearGradient id="paint3_linear_1699_2531" x1="75.7349" y1="3.55369" x2="118.135" y2="5.82229"
                        gradientUnits="userSpaceOnUse">
            <stop stop-color="#8D611D"/>
            <stop offset="1" stop-color="#B79766"/>
        </linearGradient>
        <linearGradient id="paint4_linear_1699_2531" x1="65.3865" y1="6.95535" x2="71.6562" y2="6.98003"
                        gradientUnits="userSpaceOnUse">
            <stop stop-color="#8D611D"/>
            <stop offset="1" stop-color="#B79766"/>
        </linearGradient>
        <linearGradient id="paint5_linear_1699_2531" x1="76.7454" y1="25.6108" x2="116.969" y2="27.1602"
                        gradientUnits="userSpaceOnUse">
            <stop stop-color="#8D611D"/>
            <stop offset="1" stop-color="#B79766"/>
        </linearGradient>
    </defs>
</svg>
